<mxfile host="app.diagrams.net" modified="2024-04-09T11:15:55.248Z" agent="Mozilla/5.0 (Windows NT 10.0; Win64; x64) AppleWebKit/537.36 (KHTML, like Gecko) Chrome/123.0.0.0 Safari/537.36" version="24.2.1" etag="1xqFNnAp2teMhkRftQUt" type="github">
  <diagram name="Page-1" id="E7GCW-7OfJi7V4-p4Qv_">
    <mxGraphModel>
      <root>
        <mxCell id="0" />
        <mxCell id="1" parent="0" />
      </root>
    </mxGraphModel>
  </diagram>
</mxfile>
